<svg xmlns="http://www.w3.org/2000/svg" viewBox="0 0 512 512" fill="none">
  <!-- 배경 원형 -->
  <rect width="512" height="512" rx="112" fill="#f43f5e"/>

  <!-- 하트 아이콘 (흰색) -->
  <path
    d="M256 370
       C256 370 130 290 130 200
       C130 158 163 128 200 128
       C224 128 244 140 256 158
       C268 140 288 128 312 128
       C349 128 382 158 382 200
       C382 290 256 370 256 370Z"
    fill="white"
  />

  <!-- 날개 왼쪽 (윙맨 컨셉) -->
  <path
    d="M130 200 C100 180 70 195 60 220 C90 210 115 215 130 200Z"
    fill="rgba(255,255,255,0.6)"
  />

  <!-- 날개 오른쪽 -->
  <path
    d="M382 200 C412 180 442 195 452 220 C422 210 397 215 382 200Z"
    fill="rgba(255,255,255,0.6)"
  />
</svg>
